The Silence of the Lambs 1991 BluRay 1080p DTS x264-LoNeWoLf

Encoded by Tequila-Bob a.k.a. bobnjeff a.k.a.LoNeWoLf

Source - NTSC BluRay Disc.

Movie has been tested and is DXVA Compliant

See the full size 1920x800 PNG files at the link below

 
http://www.imdb.com/title/tt0102926/

Genres:Crime | Thriller 

Release Date:14 February 1991 (USA)

 MPAA Rating: R for Disturbing Grisly Images and Violence, Strong Language, and Some Sexual Content

The Silence of the Lambs (1991) 
  118 min  -  Crime | Thriller   -  14 February 1991 (USA) 
8.7/10 X  Users: 8.7/10 (257,992 votes) 692 reviews | Critics: 150 reviews 
A young FBI cadet must confide in an incarcerated and manipulative killer to receive his help on catching another serial killer who skins his victims. 

Director: Jonathan Demme
Writers: Thomas Harris (novel), Ted Tally (screenplay)
Stars:Jodie Foster, Anthony Hopkins, Scott Glenn

Storyline
Young FBI agent Clarice Starling is assigned to help find a missing woman to save her from a psychopathic serial killer who skins his victims. Clarice attempts to gain a better insight into the twisted mind of the killer by talking to another psychopath Hannibal Lecter, who used to be a respected psychiatrist. FBI agent Jack Crawford believes that Lecter who is also a very powerful and clever mind manipulator have the answers to their questions to help locate the killer. Clarice must first try and gain Lecter's confidence before he is to give away any information. 



Cast
Cast overview, first billed only: 
  Jodie Foster  ...  Clarice Starling  
  Scott Glenn  ...  Jack Crawford  
  Anthony Hopkins  ...  Dr. Hannibal Lecter  
  Ted Levine  ...  Jame 'Buffalo Bill' Gumb  
  Brooke Smith  ...  Catherine Martin  
  Anthony Heald  ...  Dr. Frederick Chilton  
  Kasi Lemmons  ...  Ardelia Mapp  
  Diane Baker  ...  Sen. Ruth Martin  
  Frankie Faison  ...  Barney Matthews  
  Dan Butler  ...  Roden  
  Lawrence T. Wrentz  ...  Agent Burroughs  
  Don Brockett  ...  Friendly Psychopath in Cell  
  Frank Seals Jr.  ...  Brooding Psychopath in Cell  
  Stuart Rudin  ...  Miggs  
  Maria Skorobogatov  ...  Young Clarice Starling

See the full size 1920x800 PNG files at the link below
 
http://s1015.photobucket.com/albums/af279/tequila-bob/The%20Silence%20of%20the%20Lambs%201991/


[img]http://torrent-stats.info/c0b8/d55bf4e8.png[/img] 

Format : Matroska 
File size : 8.92 GiB 
Duration : 1h 58mn 
Overall bit rate : 10.8 Mbps 
Encoded date : UTC 2010-12-29 23:44:24 
Writing application : mkvmerge v4.4.0 ('Die Wiederkehr') built on Oct 31 2010 21:52:48 
Writing library : libebml v1.0.0 + libmatroska v1.0.0 

Video 
ID : 1 
Format : AVC 
Format/Info : Advanced Video Codec 
Format profile : High@L4.1 
Format settings, CABAC : Yes 
Format settings, ReFrames : 3 frames 
Muxing mode : Container profile=Unknown@4.1 
Codec ID : V_MPEG4/ISO/AVC 
Duration : 1h 58mn 
Bit rate : 9 199 Kbps 
Width : 1 920 pixels 
Height : 1 040 pixels 
Display aspect ratio : 16:9 
Frame rate : 23.976 fps 
Color space : YUV 
Chroma subsampling : 4:2:0 
Bit depth : 8 bits 
Scan type : Progressive 
Bits/(Pixel*Frame) : 0.192 
Stream size : 7.49 GiB (84%) 
Writing library : x264 core 98 r1649 c54c47d 
Encoding settings : cabac=1 / ref=4 / deblock=1:-3:-3 / analyse=0x3:0x113 / me=umh / subme=9 / psy=1 / psy_rd=1.00:0.15 / mixed_ref=1 / me_range=32 / chroma_me=1 / trellis=2 / 8x8dct=1 / cqm=0 / deadzone=21,11 / fast_pskip=0 / chroma_qp_offset=-3 / threads=6 / sliced_threads=0 / nr=0 / decimate=1 / interlaced=0 / constrained_intra=0 / bframes=3 / b_pyramid=1 / b_adapt=2 / b_bias=0 / direct=1 / weightb=1 / weightp=2 / keyint=250 / keyint_min=25 / scenecut=40 / intra_refresh=0 / rc_lookahead=60 / rc=2pass / mbtree=1 / bitrate=9199 / ratetol=1.0 / qcomp=0.60 / qpmin=10 / qpmax=51 / qpstep=4 / cplxblur=20.0 / qblur=0.5 / vbv_maxrate=50000 / vbv_bufsize=50000 / ip_ratio=1.40 / aq=1:1.50 / nal_hrd=none 
Language : English 

Audio 
ID : 2 
Format : DTS 
Format/Info : Digital Theater Systems 
Codec ID : A_DTS 
Duration : 1h 58mn 
Bit rate mode : Constant 
Bit rate : 1 510 Kbps 
Channel(s) : 6 channels 
Channel positions : Front: L C R, Side: L R, LFE 
Sampling rate : 48.0 KHz 
Bit depth : 24 bits 
Video delay : 10ms 
Stream size : 1.25 GiB (14%) 
Title : 3/2+1 
Language : English 

Text #1 
ID : 3 
Format : PGS 
Codec ID : S_HDMV/PGS 
Codec ID/Info : The same subtitle format used on BDs/HD-DVDs 
Language : English, French, Spanish, Korean, Chinese, Thai



format used on BDs/HD-DVDs 
Language : French 

Menu & 27 Chapters



See the full size 1920x800 PNG files at the link below
 
http://s1015.photobucket.com/albums/af279/tequila-bob/The%20Silence%20of%20the%20Lambs%201991/
